<svg width="13" height="16" viewBox="0 0 13 16" fill="none" xmlns="http://www.w3.org/2000/svg">
<path d="M9.97253 6.19608L9.97221 3.54062C9.97221 2.60159 9.60625 1.70102 8.95502 1.03702C8.3038 0.373028 7.42055 0 6.49958 0C5.57861 0 4.69535 0.373028 4.04413 1.03702C3.3929 1.70102 3.02705 2.60159 3.02705 3.54062H3.00639V6.19608H3.02748C2.33675 6.19608 1.67431 6.47585 1.18589 6.97384C0.697471 7.47184 0.42308 8.14727 0.42308 8.85154V12.3922C0.42308 13.0964 0.697471 13.7719 1.18589 14.2699C1.67431 14.7678 2.33675 15.0476 3.02748 15.0476H9.97253C10.6633 15.0476 11.3257 14.7678 11.8141 14.2699C12.3025 13.7719 12.5769 13.0964 12.5769 12.3922V8.85154C12.5769 8.14727 12.3025 7.47184 11.8141 6.97384C11.3257 6.47585 10.6633 6.19608 9.97253 6.19608ZM3.87452 3.64515C3.88568 3.61133 3.89262 3.57621 3.89518 3.54062C3.89518 2.83634 4.16957 2.16092 4.65799 1.66292C5.14641 1.16493 5.80885 0.885154 6.49958 0.885154C7.19031 0.885154 7.85274 1.16493 8.34116 1.66292C8.82958 2.16092 9.10397 2.83634 9.10397 3.54062L9.10408 6.19608H3.87452V3.64515ZM11.7088 12.3922C11.7083 12.8615 11.5252 13.3115 11.1997 13.6434C10.8742 13.9753 10.4329 14.1619 9.97253 14.1625H3.02748C2.56715 14.1619 2.12583 13.9752 1.80034 13.6434C1.47484 13.3115 1.29174 12.8615 1.29121 12.3922V8.85154C1.29174 8.38219 1.47484 7.93222 1.80034 7.60034C2.12583 7.26846 2.56715 7.08177 3.02748 7.08123H9.97253C10.4329 7.08176 10.8742 7.26845 11.1997 7.60033C11.5252 7.93221 11.7083 8.38219 11.7088 8.85154V12.3922Z" fill="#5B799E"/>
<circle cx="6.5" cy="10.1279" r="0.868132" fill="#5B799E"/>
<rect x="6.21063" y="10.4175" width="0.578755" height="1.73626" rx="0.289377" fill="#5B799E"/>
</svg>
