<?xml version="1.0" ?><svg height="512" id="svg2" version="1.1" width="512" xmlns="http://www.w3.org/2000/svg" xmlns:cc="http://creativecommons.org/ns#" xmlns:dc="http://purl.org/dc/elements/1.1/" xmlns:inkscape="http://www.inkscape.org/namespaces/inkscape" xmlns:rdf="http://www.w3.org/1999/02/22-rdf-syntax-ns#" xmlns:sodipodi="http://sodipodi.sourceforge.net/DTD/sodipodi-0.dtd" xmlns:svg="http://www.w3.org/2000/svg"><defs id="defs4"/><g id="layer1" transform="translate(0,-540.36218)"><path d="m 229.34874,585.79642 c -101.30631,-10e-5 -183.423306,82.1165 -183.423306,183.4238 0,101.30685 82.116996,183.42385 183.423306,183.42365 33.7531,0 65.3585,-9.1197 92.5228,-25.0228 l 0.038,0.039 c 54.2879,-31.9738 90.7077,-91.0289 90.7077,-158.59425 0,-30.015 -7.1745,-58.3433 -19.9256,-83.3708 -0.062,-0.1187 -0.1323,-0.2284 -0.1928,-0.3473 -0.6092,-1.1884 -1.2196,-2.3794 -1.8535,-3.5526 -0.074,-0.1308 -0.1607,-0.2547 -0.2324,-0.3857 -0.6363,-1.1716 -1.2702,-2.3579 -1.9314,-3.5139 -0.074,-0.1314 -0.1557,-0.2559 -0.231,-0.3859 -2.8817,-4.9829 -5.9845,-9.8083 -9.3073,-14.4809 -33.2415,-46.7468 -87.8618,-77.2309 -149.5961,-77.2309 z m 0,60.549 c 67.8707,0 122.8753,55.0036 122.8753,122.8748 0,73.13935 -55.6855,122.61995 -122.8753,122.87445 -67.87071,0.2574 -122.91241,-55.0035 -122.91241,-122.87455 0,-67.8713 55.0417,-122.875 122.91241,-122.8749 z m 161.7997,245.82635 c -15.0272,19.7983 -33.5986,36.7742 -54.7574,49.9688 l 75.165,75.16553 c 5.9734,5.972 15.5364,5.972 21.5098,-3e-4 l 30.7762,-30.77673 c 5.9722,-5.972 6.0513,-15.6137 0.074,-21.5859 z" id="path4386" style="fill:#000000;fill-opacity:1;stroke:none"/></g></svg>